Coordinates
version=1
nRows=19
nColumns=63
inDegrees=yes

Units are S.I. units (second, meters, Newtons, ...)
If the header above contains a line with 'inDegrees', this indicates whether rotational values are in degrees (yes) or radians (no).

endheader
time	pelvis_tilt	pelvis_list	pelvis_rotation	pelvis_tx	pelvis_ty	pelvis_tz	hip_flexion_r	hip_adduction_r	hip_rotation_r	knee_angle_r	knee_angle_r_beta	ankle_angle_r	subtalar_angle_r	mtp_angle_r	hip_flexion_l	hip_adduction_l	hip_rotation_l	knee_angle_l	knee_angle_l_beta	ankle_angle_l	subtalar_angle_l	mtp_angle_l	L5_S1_Flex_Ext	L5_S1_Lat_Bending	L5_S1_axial_rotation	L4_L5_Flex_Ext	L4_L5_Lat_Bending	L4_L5_axial_rotation	L3_L4_Flex_Ext	L3_L4_Lat_Bending	L3_L4_axial_rotation	L2_L3_Flex_Ext	L2_L3_Lat_Bending	L2_L3_axial_rotation	L1_L2_Flex_Ext	L1_L2_Lat_Bending	L1_L2_axial_rotation	L1_T12_Flex_Ext	L1_T12_Lat_Bending	L1_T12_axial_rotation	Abs_r3	Abs_r2	Abs_r1	Abs_t1	Abs_t2	neck_flexion	neck_bending	neck_rotation	arm_flex_r	arm_add_r	arm_rot_r	elbow_flex_r	pro_sup_r	wrist_flex_r	wrist_dev_r	arm_flex_l	arm_add_l	arm_rot_l	elbow_flex_l	pro_sup_l	wrist_flex_l	wrist_dev_l
2.898305	16.046400	8.295468	82.658564	0.123371	0.508709	1.015140	-6.730483	11.782678	-1.607296	8.359124	0.145894	24.332723	18.649500	0.000000	-7.007642	-11.430201	-0.249616	9.419450	0.164400	31.677003	-17.820220	0.000000	-0.697897	3.750305	-4.477349	-1.296064	4.987905	-4.757183	-1.146575	9.118491	-4.757183	-0.797626	9.118491	-3.917680	-0.648067	7.647621	-3.637846	-0.398778	5.809222	-3.358012	-4.985008	42.424196	-24.901671	0.000000	0.000000	-3.720563	-18.001078	33.763546	117.039387	25.191484	169.525891	0.033460	0.400777	-69.947219	-24.762223	23.744689	13.971441	155.643163	0.052456	0.847024	-69.885305	-24.608765
2.915254	16.307831	8.293598	82.620507	0.122398	0.508459	1.015293	-6.799147	11.998642	-1.505734	8.245170	0.143905	24.213390	18.630550	0.000000	-7.021869	-11.643370	-0.259889	9.492577	0.165677	31.827082	-17.911606	0.000000	-0.714090	3.778150	-4.408915	-1.326136	5.024940	-4.684472	-1.173178	9.186195	-4.684472	-0.816133	9.186195	-3.857801	-0.663104	7.704404	-3.582244	-0.408031	5.852355	-3.306686	-5.100672	42.739191	-24.521064	0.000000	0.000000	-3.280118	-18.381225	33.333111	117.466732	24.764849	169.505026	0.033468	0.398099	-69.947281	-24.761544	23.994170	14.301065	155.308792	0.052722	0.825813	-69.884875	-24.603399
2.932203	16.561922	8.273317	82.579863	0.121490	0.508212	1.015357	-6.839352	12.210219	-1.416407	8.159328	0.142407	24.090651	18.615969	0.000000	-7.034719	-11.853520	-0.291825	9.538905	0.166485	31.947300	-17.981623	0.000000	-0.725454	3.802213	-4.355525	-1.347240	5.056943	-4.627745	-1.191848	9.244701	-4.627745	-0.829121	9.244701	-3.811084	-0.673656	7.753473	-3.538864	-0.414524	5.889628	-3.266644	-5.181844	43.011393	-24.224124	0.000000	0.000000	-2.888021	-18.723192	32.923331	117.814762	24.351207	169.481915	0.033484	0.396662	-69.947347	-24.761255	24.185726	14.602071	154.964856	0.052998	0.808553	-69.884405	-24.598589
2.949153	16.822564	8.236554	82.529530	0.120594	0.507943	1.015343	-6.852624	12.426946	-1.335769	8.107397	0.141501	23.966728	18.606144	0.000000	-7.046201	-12.071285	-0.344635	9.569064	0.167012	32.060105	-18.024628	0.000000	-0.733601	3.825643	-4.310715	-1.362370	5.088105	-4.580134	-1.205233	9.301669	-4.580134	-0.838433	9.301669	-3.771875	-0.681222	7.801252	-3.502456	-0.419180	5.925921	-3.233036	-5.240038	43.276441	-23.974902	0.000000	0.000000	-2.515014	-19.063049	32.510673	118.120380	23.941539	169.439238	0.033490	0.395773	-69.947409	-24.761294	24.337197	14.894127	154.644537	0.053279	0.796526	-69.883949	-24.594598
2.966102	17.135378	8.184987	82.468498	0.119557	0.507611	1.015321	-6.835676	12.686552	-1.285396	8.102202	0.141410	23.831305	18.608363	0.000000	-7.042370	-12.337164	-0.399023	9.619834	0.167898	32.203841	-18.057307	0.000000	-0.741767	3.856413	-4.260475	-1.377536	5.129030	-4.526754	-1.218650	9.376484	-4.526754	-0.847766	9.376484	-3.727915	-0.688805	7.863998	-3.461636	-0.423846	5.973584	-3.195356	-5.298371	43.624520	-23.695482	0.000000	0.000000	-2.100669	-19.448289	32.029173	118.464470	23.502403	169.362114	0.033502	0.395259	-69.947468	-24.761435	24.499514	15.228360	154.416127	0.053571	0.788879	-69.883499	-24.590857
2.983051	17.456565	8.113794	82.391900	0.118479	0.507244	1.015170	-6.794416	12.949133	-1.233761	8.128463	0.141868	23.714471	18.612961	0.000000	-7.045575	-12.607844	-0.493409	9.646323	0.168360	32.333040	-18.064799	0.000000	-0.746669	3.889652	-4.213116	-1.386639	5.173238	-4.476436	-1.226703	9.457301	-4.476436	-0.853368	9.457301	-3.686477	-0.693357	7.931779	-3.423157	-0.426647	6.025071	-3.159837	-5.333382	44.000525	-23.432088	0.000000	0.000000	-1.730617	-19.840892	31.567035	118.813817	23.077079	169.189252	0.033509	0.394014	-69.947514	-24.761534	24.634735	15.574082	154.234116	0.053843	0.783224	-69.883080	-24.588389
3.000000	17.814742	8.017072	82.325851	0.117243	0.506787	1.014982	-6.711616	13.242618	-1.227637	8.194988	0.143030	23.609179	18.625008	0.000000	-7.018126	-12.913587	-0.580844	9.691944	0.169156	32.472569	-18.064918	0.000000	-0.748954	3.930855	-4.159824	-1.390882	5.228038	-4.419813	-1.230456	9.557482	-4.419813	-0.855979	9.557482	-3.639846	-0.695478	8.015800	-3.379857	-0.427952	6.088895	-3.119868	-5.349701	44.466623	-23.135693	0.000000	0.000000	-1.351380	-20.294192	31.053091	119.245908	22.642929	168.973716	0.033511	0.391393	-69.947546	-24.761053	24.784716	15.967902	154.152004	0.054094	0.777878	-69.882749	-24.585919
3.016949	18.217027	7.906460	82.265765	0.115863	0.506258	1.014763	-6.604707	13.573661	-1.260201	8.294366	0.144764	23.513928	18.647413	0.000000	-6.976523	-13.261107	-0.638657	9.756827	0.170289	32.629558	-18.054334	0.000000	-0.751513	3.980934	-4.094863	-1.395636	5.294642	-4.350792	-1.234661	9.679242	-4.350792	-0.858905	9.679242	-3.583005	-0.697855	8.117920	-3.327076	-0.429415	6.166466	-3.071147	-5.367985	45.033117	-22.774398	0.000000	0.000000	-0.979368	-20.787417	30.493295	119.772889	22.201957	168.659709	0.033535	0.388823	-69.947563	-24.760638	24.960421	16.424689	154.124595	0.054323	0.773772	-69.882477	-24.584089
3.033898	18.631475	7.788803	82.224333	0.114415	0.505674	1.014553	-6.478192	13.915747	-1.337471	8.416901	0.146903	23.437059	18.676466	0.000000	-6.915931	-13.621553	-0.660370	9.841724	0.171770	32.783153	-18.041307	0.000000	-0.754439	4.035505	-4.022132	-1.401068	5.367221	-4.273515	-1.239467	9.811926	-4.273515	-0.862248	9.811926	-3.519366	-0.700572	8.229201	-3.267982	-0.431086	6.250997	-3.016599	-5.388879	45.650437	-22.369893	0.000000	0.000000	-0.623751	-21.315080	29.894472	120.375469	21.774062	168.311739	0.033563	0.385848	-69.947579	-24.759965	25.158773	16.911765	154.154799	0.054524	0.770235	-69.882254	-24.582531
3.050847	19.039262	7.690415	82.209076	0.112971	0.505068	1.014437	-6.357974	14.253576	-1.455134	8.551553	0.149253	23.385287	18.708218	0.000000	-6.838867	-13.978152	-0.633335	9.974305	0.174084	32.942126	-18.026878	0.000000	-0.761293	4.091110	-3.940481	-1.413797	5.441176	-4.186761	-1.250728	9.947125	-4.186761	-0.870082	9.947125	-3.447921	-0.706937	8.342592	-3.201641	-0.435003	6.337130	-2.955361	-5.437840	46.279456	-21.915775	0.000000	0.000000	-0.270110	-21.898676	29.233166	121.038984	21.362552	168.005812	0.033597	0.382391	-69.947583	-24.758845	25.392744	17.405816	154.250432	0.054732	0.768991	-69.882012	-24.581459
3.067797	19.397916	7.618151	82.229778	0.111666	0.504480	1.014415	-6.248147	14.552240	-1.619196	8.693938	0.151738	23.365078	18.741572	0.000000	-6.763392	-14.293080	-0.548478	10.110168	0.176456	33.081879	-18.014643	0.000000	-0.770227	4.140776	-3.859200	-1.430389	5.507232	-4.100400	-1.265406	10.067883	-4.100400	-0.880293	10.067883	-3.376800	-0.715233	8.443870	-3.135600	-0.440108	6.414062	-2.894400	-5.501656	46.841287	-21.463711	0.000000	0.000000	0.019706	-22.460961	28.579465	121.696051	20.997510	167.762017	0.033637	0.378860	-69.947581	-24.757541	25.637837	17.853562	154.421959	0.054909	0.768013	-69.881735	-24.580564
3.084746	19.674125	7.595669	82.296885	0.110568	0.503957	1.014516	-6.175517	14.782532	-1.815149	8.827591	0.154071	23.387494	18.770490	0.000000	-6.701038	-14.535664	-0.410521	10.255663	0.178995	33.196965	-17.995162	0.000000	-0.782250	4.178885	-3.784569	-1.452717	5.557917	-4.021104	-1.285159	10.160541	-4.021104	-0.894034	10.160541	-3.311498	-0.726398	8.521582	-3.074962	-0.446978	6.473093	-2.838427	-5.587537	47.272383	-21.048637	0.000000	0.000000	0.213529	-22.993388	27.955454	122.305434	20.690390	167.660894	0.033681	0.375695	-69.947567	-24.755933	25.885462	18.218846	154.674246	0.055083	0.767768	-69.881472	-24.579647
3.101695	19.916297	7.620523	82.374669	0.109667	0.503500	1.014790	-6.135897	14.986928	-2.034694	8.968307	0.156526	23.428318	18.802680	0.000000	-6.648515	-14.752553	-0.239933	10.439840	0.182210	33.331886	-17.982364	0.000000	-0.800591	4.210679	-3.707273	-1.486778	5.600202	-3.938977	-1.315291	10.237844	-3.938977	-0.914996	10.237844	-3.243864	-0.743429	8.586416	-3.012159	-0.457458	6.522341	-2.780455	-5.718543	47.632038	-20.618739	0.000000	0.000000	0.379787	-23.522807	27.325054	122.873000	20.418712	167.691413	0.033727	0.373883	-69.947556	-24.754917	26.152963	18.525319	155.006359	0.055232	0.771915	-69.881007	-24.579716
3.118644	20.055811	7.691726	82.499857	0.109042	0.503147	1.015121	-6.136387	15.107197	-2.275399	9.087559	0.158608	23.513854	18.826935	0.000000	-6.620683	-14.881239	-0.044750	10.602424	0.185047	33.417175	-17.970716	0.000000	-0.817928	4.226346	-3.650363	-1.518974	5.621041	-3.878510	-1.343774	10.275938	-3.878510	-0.934810	10.275938	-3.194067	-0.759528	8.618365	-2.965920	-0.467364	6.546610	-2.737772	-5.842379	47.809274	-20.302223	0.000000	0.000000	0.410487	-23.962553	26.793908	123.316657	20.222611	167.888905	0.033752	0.373314	-69.947557	-24.754224	26.380811	18.709786	155.399996	0.055339	0.776747	-69.880535	-24.579934
3.135593	20.137992	7.814150	82.633732	0.108632	0.502905	1.015543	-6.180203	15.177870	-2.517547	9.205310	0.160663	23.623058	18.852388	0.000000	-6.624029	-14.960877	0.152933	10.777257	0.188099	33.498582	-17.967625	0.000000	-0.839011	4.231784	-3.601866	-1.558128	5.628273	-3.826983	-1.378412	10.289160	-3.826983	-0.958906	10.289160	-3.151633	-0.779106	8.629454	-2.926516	-0.479411	6.555033	-2.701400	-5.992973	47.870787	-20.032498	0.000000	0.000000	0.383210	-24.359916	26.328418	123.670454	20.067742	168.318120	0.033750	0.373684	-69.947563	-24.753758	26.597274	18.809383	155.857222	0.055432	0.784612	-69.880038	-24.580388
3.152542	20.126567	7.976618	82.787721	0.108527	0.502794	1.015932	-6.268832	15.170255	-2.746290	9.297299	0.162268	23.761527	18.871433	0.000000	-6.663573	-14.959147	0.356421	10.928285	0.190735	33.542411	-17.971869	0.000000	-0.858195	4.221517	-3.576909	-1.593753	5.614618	-3.800466	-1.409928	10.264198	-3.800466	-0.980831	10.264198	-3.129796	-0.796920	8.608518	-2.906239	-0.490372	6.539131	-2.682682	-6.129999	47.754650	-19.893697	0.000000	0.000000	0.228694	-24.664349	26.002134	123.873171	19.989833	168.895012	0.033727	0.375572	-69.947568	-24.753930	26.752656	18.783445	156.358090	0.055472	0.792838	-69.879598	-24.580758
3.169492	20.072600	8.147387	82.941079	0.108624	0.502779	1.016235	-6.382095	15.131132	-2.944268	9.357635	0.163322	23.905158	18.885819	0.000000	-6.723217	-14.924542	0.556672	11.050117	0.192861	33.578052	-17.984595	0.000000	-0.873954	4.203556	-3.568071	-1.623021	5.590729	-3.791075	-1.435820	10.220526	-3.791075	-0.998843	10.220526	-3.122062	-0.811554	8.571891	-2.899057	-0.499378	6.511308	-2.676053	-6.242570	47.551465	-19.844539	0.000000	0.000000	-0.002397	-24.897889	25.755539	123.956788	19.963066	169.599290	0.033686	0.378694	-69.947572	-24.754332	26.855463	18.688085	156.846223	0.055486	0.800620	-69.879187	-24.580977
3.186441	19.955869	8.312299	83.099859	0.108965	0.502869	1.016372	-6.508129	15.043790	-3.109208	9.382711	0.163759	24.052097	18.890955	0.000000	-6.788281	-14.838018	0.765720	11.138470	0.194403	33.599629	-18.004845	0.000000	-0.883085	4.175314	-3.586075	-1.639977	5.553167	-3.810205	-1.450820	10.151858	-3.810205	-1.009278	10.151858	-3.137816	-0.820033	8.514300	-2.913686	-0.504595	6.467561	-2.689556	-6.307787	47.231986	-19.944673	0.000000	0.000000	-0.322061	-25.059841	25.632383	123.890128	20.015040	170.343810	0.033645	0.383077	-69.947567	-24.755260	26.871780	18.505032	157.250990	0.055461	0.810208	-69.878837	-24.581742
3.203390	19.793040	8.463422	83.281207	0.109466	0.503042	1.016303	-6.640885	14.924945	-3.267013	9.368644	0.163514	24.191833	18.890109	0.000000	-6.853880	-14.716346	1.011104	11.175475	0.195049	33.615112	-18.020892	0.000000	-0.883955	4.139465	-3.632609	-1.641593	5.505488	-3.859647	-1.452250	10.064695	-3.859647	-1.010272	10.064695	-3.178533	-0.820841	8.441197	-2.951494	-0.505092	6.412031	-2.724456	-6.314003	46.826453	-20.203479	0.000000	0.000000	-0.731000	-25.131760	25.604861	123.684701	20.132540	171.058499	0.033610	0.388861	-69.947550	-24.756193	26.803274	18.255228	157.563084	0.055389	0.818772	-69.878565	-24.582487
